<?xml version="1.0" encoding="utf-8"?>
<!-- Generator: Adobe Illustrator 23.0.5, SVG Export Plug-In . SVG Version: 6.00 Build 0)  -->
<svg version="1.1" id="Capa_1" xmlns="http://www.w3.org/2000/svg" xmlns:xlink="http://www.w3.org/1999/xlink" x="0px" y="0px"
	 viewBox="0 0 610.14 239.86" style="enable-background:new 0 0 610.14 239.86;" xml:space="preserve">
<style type="text/css">
	.st0{fill:#166193;}
	.st1{fill:#37A5DD;}
	.st2{clip-path:url(#SVGID_2_);fill:#FFFFFF;}
	.st3{clip-path:url(#SVGID_2_);fill:#1D1E1C;}
	.st4{clip-path:url(#SVGID_2_);fill:#37A5DD;}
	.st5{clip-path:url(#SVGID_2_);fill:#FCEA1E;}
	.st6{clip-path:url(#SVGID_2_);fill:#166193;}
</style>
<g>
	<path class="st0" d="M226.75,104.29h-4.98c-2.49-14.72-8.32-28.3-16.7-39.93l3.63-3.63c1.48-1.48,1.48-3.89,0-5.37l-17.38-17.38
		c-1.48-1.48-3.89-1.48-5.37,0l-3.77,3.77c-11.64-8.16-25.16-13.8-39.79-16.13v-5.68c0-2.1-1.7-3.8-3.8-3.8h-24.58
		c-2.1,0-3.8,1.7-3.8,3.8v5.96c-14.4,2.56-27.68,8.34-39.1,16.56l-4.47-4.47c-1.48-1.48-3.89-1.48-5.37,0L43.88,55.36
		c-1.48,1.48-1.48,3.89,0,5.37l4.61,4.61c-8,11.41-13.58,24.65-16,38.95h-6.66c-2.1,0-3.8,1.7-3.8,3.8v24.58c0,2.1,1.7,3.8,3.8,3.8
		h6.66c2.42,14.31,7.99,27.54,16,38.96l-4.61,4.61c-1.48,1.48-1.48,3.89,0,5.37l17.38,17.38c1.48,1.48,3.89,1.48,5.37,0l4.47-4.47
		c11.41,8.22,24.7,13.99,39.1,16.56v5.96c0,2.1,1.7,3.8,3.8,3.8h24.58c2.1,0,3.8-1.7,3.8-3.8v-5.68
		c14.63-2.34,28.16-7.98,39.79-16.14l3.77,3.77c1.48,1.48,3.89,1.48,5.37,0l17.38-17.38c1.48-1.48,1.48-3.89,0-5.37l-3.63-3.63
		c8.38-11.63,14.21-25.21,16.7-39.93h4.98c2.1,0,3.8-1.7,3.8-3.8V108.1C230.55,106,228.85,104.29,226.75,104.29"/>
	<path class="st1" d="M213.91,120.54c0,48.05-38.96,87.01-87.01,87.01c-48.05,0-87.01-38.96-87.01-87.01
		c0-48.05,38.96-87.01,87.01-87.01C174.95,33.53,213.91,72.48,213.91,120.54"/>
	<g>
		<defs>
			<path id="SVGID_1_" d="M39.89,120.54c0,48.05,38.96,87.01,87.01,87.01c48.05,0,87.01-38.96,87.01-87.01
				c0-48.05-38.96-87.01-87.01-87.01C78.84,33.53,39.89,72.48,39.89,120.54"/>
		</defs>
		<clipPath id="SVGID_2_">
			<use xlink:href="#SVGID_1_"  style="overflow:visible;"/>
		</clipPath>
		<path class="st2" d="M199.29,120.33c0,40.06-32.48,72.54-72.54,72.54c-40.06,0-72.54-32.48-72.54-72.54
			c0-40.06,32.48-72.54,72.54-72.54C166.82,47.79,199.29,80.27,199.29,120.33"/>
		<path class="st3" d="M126.9,208.92c-48.84,0-88.58-39.73-88.58-88.57s39.74-88.58,88.58-88.58s88.58,39.74,88.58,88.58
			S175.74,208.92,126.9,208.92 M126.9,32.74c-48.3,0-87.6,39.3-87.6,87.6c0,48.3,39.3,87.6,87.6,87.6s87.61-39.3,87.61-87.6
			C214.5,72.04,175.2,32.74,126.9,32.74"/>
		<path class="st4" d="M185.16,119.94c0,32.05-25.98,58.03-58.03,58.03c-32.05,0-58.03-25.98-58.03-58.03
			c0-32.05,25.98-58.03,58.03-58.03C159.18,61.9,185.16,87.88,185.16,119.94"/>
		<path class="st5" d="M169.72,120.35c0,23.97-19.43,43.39-43.39,43.39c-23.96,0-43.39-19.43-43.39-43.39
			c0-23.96,19.43-43.39,43.39-43.39C150.29,76.95,169.72,96.38,169.72,120.35"/>
		<path class="st4" d="M234.61,177.07c-28.9-21.88-57.81-43.76-86.71-65.63v151.74h86.71V177.07z"/>
		<polygon class="st4" points="75.42,142.13 63.26,133.12 63.26,148.91 		"/>
		<polygon class="st4" points="117.84,130.46 105.67,121.34 105.67,137.32 		"/>
		<path class="st6" d="M176.84,163.62c0,5.88-3.24,10.65-7.23,10.65s-7.23-4.77-7.23-10.65c0-5.88,3.24-10.65,7.23-10.65
			S176.84,157.74,176.84,163.62"/>
		<path class="st6" d="M105.67,137.21l0.01-15.87l-42.41,27.57v-15.79l-70.13,43.57l0.02-16.43l-51.65,27.46v76.28
			c68.8-0.4,137.59-0.8,206.39-1.2V111.43L105.67,137.21z"/>
	</g>
	<g>
		<path class="st0" d="M263.85,94.13c-6.72,0-10-7.13-10-15.87c0-8.29,3.36-15.87,10.09-15.87c2.51,0,4.26,0.67,5.51,1.79
			l-1.08,3.32c-0.72-0.49-1.79-1.03-3.5-1.03c-4.39,0-5.83,5.96-5.83,11.79c0,5.65,1.66,11.57,5.78,11.57c1.7,0,2.82-0.49,3.54-1.08
			l1.12,3.59C268.42,93.46,266.5,94.13,263.85,94.13z"/>
		<path class="st0" d="M272.86,93.68V62.84h12.91v3.94h-7.85v9.15h6.95v3.86h-6.95v9.95h7.85v3.95H272.86z"/>
		<path class="st0" d="M305.05,93.68l-9.77-20.17c-0.67-1.39-1.21-2.87-1.21-2.87h-0.13c0,0,0.13,1.43,0.13,2.87v20.17h-4.21V62.84
			h4.75l8.92,18.47c0.67,1.43,1.34,2.96,1.34,2.96h0.09c0,0-0.13-1.61-0.13-3.09V62.84h4.26v30.84H305.05z"/>
		<path class="st0" d="M322.09,66.78v26.9h-5.02v-26.9h-4.84v-3.94h14.71v3.94H322.09z"/>
		<path class="st0" d="M342.58,93.68l-7.31-14.57h-0.09v14.57h-5.02v-29.5c1.66-1.08,4.21-1.79,7.22-1.79
			c6.72,0,9.59,3.72,9.59,9.59c0,4.03-3,7.31-6.32,7.85v0.09l7.53,13.76H342.58z M337.38,65.84c-0.99,0-1.66,0.13-2.24,0.4V77.9
			c0.27,0.04,0.49,0.09,0.85,0.09c3.09,0,6.05-1.7,6.05-5.92C342.04,68.13,340.83,65.84,337.38,65.84z"/>
		<path class="st0" d="M360.74,94.13c-7.13,0-9.95-7.17-9.95-15.87c0-8.65,2.82-15.87,9.95-15.87s9.95,7.22,9.95,15.87
			C370.69,86.95,367.87,94.13,360.74,94.13z M360.74,66.33c-3.86,0-4.84,5.92-4.84,11.79c0,5.78,0.9,11.7,4.84,11.7
			c3.99,0,4.8-5.92,4.8-11.7C365.53,72.25,364.59,66.33,360.74,66.33z"/>
		<path class="st0" d="M393.47,94.13c-3.32,0-5.96-0.67-7.44-1.79V64.18c1.61-1.03,4.17-1.79,7.22-1.79
			c7.93,0,11.39,6.46,11.39,15.65C404.63,87.18,401.45,94.13,393.47,94.13z M393.33,66.2c-1.03,0-1.79,0.13-2.33,0.36v23.13
			c0.45,0.18,1.39,0.4,2.42,0.4c4.35,0,6.05-3.86,6.05-12.15C399.47,70.1,397.59,66.2,393.33,66.2z"/>
		<path class="st0" d="M409.16,93.68V62.84h12.91v3.94h-7.85v9.15h6.95v3.86h-6.95v9.95h7.85v3.95H409.16z"/>
	</g>
	<g>
		<path class="st0" d="M259.68,114.26v9.15h6.95v3.86h-6.95v13.9h-5.07v-30.84h12.87v3.94H259.68z"/>
		<path class="st0" d="M279.95,141.61c-7.13,0-9.95-7.17-9.95-15.87c0-8.65,2.82-15.87,9.95-15.87c7.13,0,9.95,7.22,9.95,15.87
			C289.9,134.43,287.08,141.61,279.95,141.61z M279.95,113.81c-3.85,0-4.84,5.92-4.84,11.79c0,5.78,0.9,11.7,4.84,11.7
			c3.99,0,4.8-5.92,4.8-11.7C284.74,119.73,283.8,113.81,279.95,113.81z"/>
		<path class="st0" d="M306.85,141.16l-7.31-14.57h-0.09v14.57h-5.02v-29.5c1.66-1.08,4.21-1.79,7.22-1.79
			c6.72,0,9.59,3.72,9.59,9.59c0,4.03-3,7.31-6.32,7.85v0.09l7.53,13.76H306.85z M301.65,113.32c-0.99,0-1.66,0.13-2.24,0.4v11.66
			c0.27,0.04,0.49,0.09,0.85,0.09c3.09,0,6.05-1.7,6.05-5.92C306.31,115.61,305.1,113.32,301.65,113.32z"/>
		<path class="st0" d="M336.53,141.16L335,121.34c-0.13-1.61-0.09-3.45-0.09-3.45h-0.09c0,0-0.36,1.79-0.76,3.45l-4.89,19.81h-2.74
			l-4.93-19.81c-0.36-1.52-0.76-3.45-0.76-3.45h-0.09c0,0,0.04,1.88-0.09,3.45l-1.48,19.81h-4.44l2.87-30.84h4.89l4.71,19.01
			c0.45,1.84,0.76,3.59,0.76,3.59h0.09c0,0,0.36-1.75,0.81-3.54l4.8-19.05h4.89l2.87,30.84H336.53z"/>
		<path class="st0" d="M359.44,141.16l-1.97-7.76h-8.11l-2.02,7.76h-4.48l8.7-30.84h4.48l8.56,30.84H359.44z M354.42,120.45
			c-0.45-1.93-0.9-4.12-0.9-4.12h-0.04c0,0-0.4,2.11-0.9,4.12l-2.42,9.5h6.5L354.42,120.45z"/>
		<path class="st0" d="M375.8,141.61c-6.72,0-10-7.13-10-15.87c0-8.29,3.36-15.87,10.09-15.87c2.51,0,4.26,0.67,5.51,1.79
			l-1.08,3.32c-0.72-0.49-1.79-1.03-3.5-1.03c-4.39,0-5.83,5.96-5.83,11.79c0,5.65,1.66,11.57,5.78,11.57c1.7,0,2.82-0.49,3.54-1.08
			l1.12,3.59C380.37,140.93,378.45,141.61,375.8,141.61z"/>
		<path class="st0" d="M384.9,141.16v-30.84h5.07v30.84H384.9z"/>
		<path class="st0" d="M404.41,141.61c-7.13,0-9.95-7.17-9.95-15.87c0-8.65,2.82-15.87,9.95-15.87s9.95,7.22,9.95,15.87
			C414.36,134.43,411.53,141.61,404.41,141.61z M404.41,113.81c-3.86,0-4.84,5.92-4.84,11.79c0,5.78,0.9,11.7,4.84,11.7
			c3.99,0,4.8-5.92,4.8-11.7C409.2,119.73,408.26,113.81,404.41,113.81z M404.99,108.12h-2.33l2.24-5.96
			c1.52-1.12,4.17-1.17,4.48-0.04L404.99,108.12z"/>
		<path class="st0" d="M434.08,141.16l-9.77-20.17c-0.67-1.39-1.21-2.87-1.21-2.87h-0.13c0,0,0.13,1.43,0.13,2.87v20.17h-4.21
			v-30.84h4.75l8.92,18.47c0.67,1.43,1.34,2.96,1.34,2.96h0.09c0,0-0.13-1.61-0.13-3.09v-18.34h4.26v30.84H434.08z"/>
		<path class="st0" d="M454.26,141.16v-30.84h5.07v26.9h7.17v3.95H454.26z"/>
		<path class="st0" d="M483.85,141.16l-1.97-7.76h-8.11l-2.02,7.76h-4.48l8.7-30.84h4.48l8.56,30.84H483.85z M478.83,120.45
			c-0.45-1.93-0.9-4.12-0.9-4.12h-0.04c0,0-0.4,2.11-0.9,4.12l-2.42,9.5h6.5L478.83,120.45z"/>
		<path class="st0" d="M499.5,141.61c-3.36,0-5.96-0.67-7.71-1.79v-28.15c1.52-1.03,4.17-1.79,7.4-1.79c5.96,0,9.5,3.23,9.5,8.07
			c0,4.03-2.6,6.1-4.8,6.86v0.09c2.29,0.67,5.69,2.82,5.69,7.76C509.58,139.14,504.79,141.61,499.5,141.61z M499.32,113.32
			c-1.08,0-1.97,0.18-2.69,0.45v9.82h1.08c4.12,0,6.05-1.21,6.05-5.25C503.75,114.98,502.23,113.32,499.32,113.32z M497.7,126.54
			h-1.08v11.03c0.67,0.27,1.57,0.4,2.78,0.4c3.18,0.04,5.07-1.84,5.07-5.51C504.47,128.34,502.68,126.54,497.7,126.54z"/>
		<path class="st0" d="M522.54,141.61c-7.13,0-9.95-7.17-9.95-15.87c0-8.65,2.83-15.87,9.95-15.87s9.95,7.22,9.95,15.87
			C532.49,134.43,529.67,141.61,522.54,141.61z M522.54,113.81c-3.86,0-4.84,5.92-4.84,11.79c0,5.78,0.9,11.7,4.84,11.7
			c3.99,0,4.8-5.92,4.8-11.7C527.34,119.73,526.4,113.81,522.54,113.81z"/>
		<path class="st0" d="M549.4,141.16l-7.31-14.57H542v14.57h-5.02v-29.5c1.66-1.08,4.21-1.79,7.22-1.79c6.72,0,9.59,3.72,9.59,9.59
			c0,4.03-3,7.31-6.32,7.85v0.09l7.53,13.76H549.4z M544.2,113.32c-0.99,0-1.66,0.13-2.24,0.4v11.66c0.27,0.04,0.49,0.09,0.85,0.09
			c3.09,0,6.05-1.7,6.05-5.92C548.86,115.61,547.65,113.32,544.2,113.32z"/>
		<path class="st0" d="M571.99,141.16l-1.97-7.76h-8.11l-2.02,7.76h-4.48l8.7-30.84h4.48l8.56,30.84H571.99z M566.97,120.45
			c-0.45-1.93-0.9-4.12-0.9-4.12h-0.04c0,0-0.4,2.11-0.9,4.12l-2.42,9.5h6.5L566.97,120.45z"/>
		<path class="st0" d="M580.02,141.16v-30.84h5.07v26.9h7.17v3.95H580.02z"/>
	</g>
	<g>
		<path class="st0" d="M269.81,188.64l-9.77-20.17c-0.67-1.39-1.21-2.87-1.21-2.87h-0.13c0,0,0.13,1.43,0.13,2.87v20.17h-4.21V157.8
			h4.75l8.92,18.47c0.67,1.43,1.34,2.96,1.34,2.96h0.09c0,0-0.13-1.61-0.13-3.09V157.8h4.26v30.84H269.81z"/>
		<path class="st0" d="M283.18,172.5c-4.04,0-5.83-3.27-5.83-7.49c0-4.26,1.84-7.53,5.83-7.53c4.03,0,5.83,3.27,5.83,7.53
			C289,169.23,287.21,172.5,283.18,172.5z M283.18,159.59c-2.11,0-2.56,2.6-2.56,5.38c0,2.73,0.49,5.25,2.56,5.25
			c2.15,0,2.56-2.51,2.56-5.25C285.73,162.19,285.33,159.59,283.18,159.59z"/>
		<path class="st0" d="M306.08,182.18v6.46h-4.57v-6.46h-9.95v-3.5l10.09-20.89h4.44v20.98h1.97v3.41H306.08z M301.47,164.47
			c0,0-0.58,1.57-1.35,3.14l-5.38,11.16h6.72v-11.16c0-1.43,0.09-3.14,0.09-3.14H301.47z"/>
		<path class="st0" d="M319.58,189.09c-6.81,0-8.29-8.34-8.29-15.87c0-7.53,1.48-15.87,8.29-15.87c6.77,0,8.25,8.34,8.25,15.87
			C327.83,180.75,326.35,189.09,319.58,189.09z M319.58,160.89c-3.23,0-3.68,5.47-3.68,12.46c0,6.95,0.45,11.83,3.68,11.83
			c3.18,0,3.68-4.89,3.68-11.83C323.26,166.36,322.76,160.89,319.58,160.89z"/>
		<path class="st0" d="M345.63,182.18v6.46h-4.57v-6.46h-9.95v-3.5l10.09-20.89h4.44v20.98h1.97v3.41H345.63z M341.01,164.47
			c0,0-0.58,1.57-1.34,3.14l-5.38,11.16h6.72v-11.16c0-1.43,0.09-3.14,0.09-3.14H341.01z"/>
		<path class="st0" d="M363.47,198.81l-3.05-1.25l17.89-44.61l3.05,1.26L363.47,198.81z"/>
		<path class="st0" d="M402.84,189.09c-3.36,0-5.96-0.67-7.71-1.79v-28.15c1.52-1.03,4.17-1.79,7.4-1.79c5.96,0,9.5,3.23,9.5,8.07
			c0,4.03-2.6,6.1-4.8,6.86v0.09c2.29,0.67,5.69,2.82,5.69,7.76C412.92,186.62,408.13,189.09,402.84,189.09z M402.66,160.8
			c-1.08,0-1.97,0.18-2.69,0.45v9.82h1.08c4.12,0,6.05-1.21,6.05-5.25C407.09,162.46,405.57,160.8,402.66,160.8z M401.04,174.02
			h-1.08v11.03c0.67,0.27,1.57,0.4,2.78,0.4c3.18,0.04,5.07-1.84,5.07-5.51C407.81,175.82,406.02,174.02,401.04,174.02z"/>
		<path class="st0" d="M420.77,178.6c0.31,4.35,2.15,6.63,5.33,6.63c2.47,0,4.17-0.72,5.07-1.39l1.12,3.45
			c-1.39,1.03-3.72,1.79-6.72,1.79c-5.87,0-9.5-4.35-9.5-12.6c0-7.62,3.41-12.46,8.74-12.46c5.6,0,8.52,4.71,8.25,13.09
			L420.77,178.6z M424.67,167.57c-2.42,0-4.17,3.05-4.12,7.89l7.75-0.99C428.26,169.94,427.09,167.57,424.67,167.57z"/>
		<path class="st0" d="M446.01,168.11c-1.48-0.67-3.14-0.58-4.26,0.09v20.44h-4.8v-22.82c2.2-1.3,4.71-1.93,10.09-1.75
			L446.01,168.11z"/>
		<path class="st0" d="M452.06,160.13c-1.48,0-2.69-1.17-2.69-2.65c0-1.52,1.21-2.69,2.69-2.69s2.69,1.17,2.69,2.69
			C454.75,158.96,453.54,160.13,452.06,160.13z M449.64,188.64v-24.16h4.8v24.16H449.64z"/>
		<path class="st0" d="M463.81,189.09c-2.6,0-4.44-0.58-5.83-1.79l1.26-3.59c0.72,0.76,2.11,1.48,3.9,1.48
			c1.7,0,2.96-1.17,2.96-2.82c0-2.06-0.99-2.91-3.18-4.57c-2.29-1.7-4.53-3.81-4.53-7.08c0-3.81,2.69-6.68,6.46-6.68
			c2.42,0,4.3,0.67,5.6,1.79l-1.21,3.14c-0.67-0.67-1.88-1.3-3.45-1.3c-1.52,0-2.65,1.25-2.65,2.69c0,1.88,1.35,3,3.5,4.57
			c2.51,1.84,4.48,3.68,4.48,7.31C471.12,186.17,467.98,189.09,463.81,189.09z"/>
		<path class="st0" d="M479.32,189.09c-2.6,0-4.44-0.58-5.83-1.79l1.26-3.59c0.72,0.76,2.11,1.48,3.9,1.48
			c1.7,0,2.96-1.17,2.96-2.82c0-2.06-0.99-2.91-3.18-4.57c-2.29-1.7-4.53-3.81-4.53-7.08c0-3.81,2.69-6.68,6.46-6.68
			c2.42,0,4.3,0.67,5.6,1.79l-1.21,3.14c-0.67-0.67-1.88-1.3-3.45-1.3c-1.52,0-2.65,1.25-2.65,2.69c0,1.88,1.35,3,3.5,4.57
			c2.51,1.84,4.48,3.68,4.48,7.31C486.63,186.17,483.49,189.09,479.32,189.09z"/>
		<path class="st0" d="M498.11,189.09c-5.87,0-8.52-5.47-8.52-12.51c0-7.13,2.69-12.55,8.47-12.55c5.87,0,8.47,5.42,8.47,12.55
			C506.54,183.62,503.89,189.09,498.11,189.09z M498.11,167.52c-3.09,0-3.72,4.35-3.72,8.97s0.67,8.74,3.72,8.74
			c3.05,0,3.63-4.12,3.63-8.74S501.16,167.52,498.11,167.52z"/>
	</g>
</g>
</svg>
